<svg width="181" height="181" viewBox="0 0 181 181" fill="none" xmlns="http://www.w3.org/2000/svg">
<rect x="0.926529" y="0.753174" width="180" height="180" fill="black"/>
<path fill-rule="evenodd" clip-rule="evenodd" d="M67.5161 76.7148L107.704 53.2312C106.143 51.9193 104.322 50.7385 102.372 49.689C97.4294 47.0651 91.7069 45.7532 85.204 45.7532C78.8312 45.7532 72.8485 47.1963 67.5161 50.2137V76.7148ZM135.927 94.9533V47.1989H113.947V59.9247C112.906 58.3504 111.736 56.9072 110.305 55.5953L89.2358 67.7963L135.927 94.9533ZM64.2647 100.071V52.1856C58.8023 55.859 54.3803 60.8444 51.1288 67.404C47.8774 73.8325 46.1866 81.1793 45.9265 89.4445L64.2647 100.071ZM135.924 134.311V98.7579L107.701 82.3588V128.276C110.172 126.44 112.253 124.341 113.944 121.979V134.311H135.924ZM61.0132 127.226L82.7329 114.631L46.0566 93.2465C46.1866 101.249 47.8774 108.334 51.1288 114.5C53.73 119.616 57.1115 123.815 61.0132 127.226ZM85.4615 135.753C91.8343 135.753 97.4268 134.441 102.369 131.817C103.019 131.424 103.8 131.03 104.45 130.505V105.71L64.002 129.325C64.3921 129.718 64.9124 129.981 65.3025 130.243C71.2852 133.916 78.0482 135.753 85.4615 135.753Z" fill="white"/>
</svg>
